<mxfile host="app.diagrams.net" agent="Mozilla/5.0 (X11; Linux x86_64; rv:141.0) Gecko/20100101 Firefox/141.0" version="28.1.1">
  <diagram name="Page-1" id="AQa3DcXcVYb4Ywh7ilmN">
    <mxGraphModel dx="1426" dy="917" grid="1" gridSize="10" guides="1" tooltips="1" connect="1" arrows="1" fold="1" page="1" pageScale="1" pageWidth="827" pageHeight="1169" math="0" shadow="0">
      <root>
        <mxCell id="0" />
        <mxCell id="1" parent="0" />
        <mxCell id="Yk5V6skLEnRN4M3c2gHt-53" style="edgeStyle=orthogonalEdgeStyle;rounded=0;orthogonalLoop=1;jettySize=auto;html=1;exitX=0.5;exitY=0;exitDx=0;exitDy=0;entryX=0.5;entryY=1;entryDx=0;entryDy=0;startArrow=classic;startFill=1;" edge="1" parent="1" source="Yk5V6skLEnRN4M3c2gHt-2" target="Yk5V6skLEnRN4M3c2gHt-3">
          <mxGeometry relative="1" as="geometry" />
        </mxCell>
        <mxCell id="Yk5V6skLEnRN4M3c2gHt-26" style="edgeStyle=orthogonalEdgeStyle;rounded=0;orthogonalLoop=1;jettySize=auto;html=1;exitX=0;exitY=0.5;exitDx=0;exitDy=0;entryX=0.5;entryY=0;entryDx=0;entryDy=0;startArrow=classic;startFill=1;" edge="1" parent="1" source="Yk5V6skLEnRN4M3c2gHt-3" target="Yk5V6skLEnRN4M3c2gHt-1">
          <mxGeometry relative="1" as="geometry" />
        </mxCell>
        <mxCell id="Yk5V6skLEnRN4M3c2gHt-36" style="edgeStyle=orthogonalEdgeStyle;rounded=0;orthogonalLoop=1;jettySize=auto;html=1;exitX=1;exitY=0.5;exitDx=0;exitDy=0;entryX=0;entryY=0.5;entryDx=0;entryDy=0;startArrow=classic;startFill=1;" edge="1" parent="1" source="Yk5V6skLEnRN4M3c2gHt-3" target="Yk5V6skLEnRN4M3c2gHt-7">
          <mxGeometry relative="1" as="geometry" />
        </mxCell>
        <mxCell id="Yk5V6skLEnRN4M3c2gHt-3" value="Monitor" style="ellipse;whiteSpace=wrap;html=1;" vertex="1" parent="1">
          <mxGeometry x="355" y="124" width="80" height="80" as="geometry" />
        </mxCell>
        <mxCell id="Yk5V6skLEnRN4M3c2gHt-4" value="Pool Operator" style="rounded=0;whiteSpace=wrap;html=1;" vertex="1" parent="1">
          <mxGeometry x="585" y="470" width="60" height="60" as="geometry" />
        </mxCell>
        <mxCell id="Yk5V6skLEnRN4M3c2gHt-29" style="edgeStyle=orthogonalEdgeStyle;rounded=0;orthogonalLoop=1;jettySize=auto;html=1;exitX=1;exitY=0.5;exitDx=0;exitDy=0;entryX=0.5;entryY=1;entryDx=0;entryDy=0;startArrow=classic;startFill=1;" edge="1" parent="1" source="Yk5V6skLEnRN4M3c2gHt-32" target="Yk5V6skLEnRN4M3c2gHt-2">
          <mxGeometry relative="1" as="geometry">
            <mxPoint x="340" y="770" as="sourcePoint" />
          </mxGeometry>
        </mxCell>
        <mxCell id="Yk5V6skLEnRN4M3c2gHt-52" style="edgeStyle=orthogonalEdgeStyle;rounded=0;orthogonalLoop=1;jettySize=auto;html=1;exitX=1;exitY=0.5;exitDx=0;exitDy=0;entryX=1;entryY=0.5;entryDx=0;entryDy=0;startArrow=classic;startFill=1;" edge="1" parent="1" source="Yk5V6skLEnRN4M3c2gHt-5" target="Yk5V6skLEnRN4M3c2gHt-7">
          <mxGeometry relative="1" as="geometry">
            <Array as="points">
              <mxPoint x="780" y="640" />
              <mxPoint x="780" y="164" />
            </Array>
          </mxGeometry>
        </mxCell>
        <mxCell id="Yk5V6skLEnRN4M3c2gHt-37" style="edgeStyle=orthogonalEdgeStyle;rounded=0;orthogonalLoop=1;jettySize=auto;html=1;exitX=0;exitY=0.5;exitDx=0;exitDy=0;entryX=1;entryY=0;entryDx=0;entryDy=0;startArrow=classic;startFill=1;" edge="1" parent="1" source="Yk5V6skLEnRN4M3c2gHt-8" target="Yk5V6skLEnRN4M3c2gHt-2">
          <mxGeometry relative="1" as="geometry" />
        </mxCell>
        <mxCell id="Yk5V6skLEnRN4M3c2gHt-50" style="edgeStyle=orthogonalEdgeStyle;rounded=0;orthogonalLoop=1;jettySize=auto;html=1;exitX=0;exitY=0.5;exitDx=0;exitDy=0;entryX=0.5;entryY=1;entryDx=0;entryDy=0;startArrow=classic;startFill=1;" edge="1" parent="1" source="Yk5V6skLEnRN4M3c2gHt-5" target="Yk5V6skLEnRN4M3c2gHt-1">
          <mxGeometry relative="1" as="geometry" />
        </mxCell>
        <mxCell id="Yk5V6skLEnRN4M3c2gHt-34" style="edgeStyle=orthogonalEdgeStyle;rounded=0;orthogonalLoop=1;jettySize=auto;html=1;exitX=0.5;exitY=0;exitDx=0;exitDy=0;entryX=1;entryY=0.5;entryDx=0;entryDy=0;startArrow=classic;startFill=1;" edge="1" parent="1" source="Yk5V6skLEnRN4M3c2gHt-4" target="Yk5V6skLEnRN4M3c2gHt-2">
          <mxGeometry relative="1" as="geometry">
            <mxPoint x="510" y="450" as="targetPoint" />
          </mxGeometry>
        </mxCell>
        <mxCell id="Yk5V6skLEnRN4M3c2gHt-58" value="&lt;div&gt;&lt;font&gt;STIDE&lt;/font&gt;&lt;/div&gt;" style="text;html=1;align=center;verticalAlign=middle;resizable=0;points=[];autosize=1;strokeColor=#6c8ebf;fillColor=#dae8fc;fontFamily=Courier New;" vertex="1" parent="1">
          <mxGeometry x="240" y="280" width="60" height="30" as="geometry" />
        </mxCell>
        <mxCell id="Yk5V6skLEnRN4M3c2gHt-59" value="" style="swimlane;startSize=0;dashed=1;" vertex="1" parent="1">
          <mxGeometry x="180" y="330" width="410" height="100" as="geometry">
            <mxRectangle x="115" y="310" width="50" height="40" as="alternateBounds" />
          </mxGeometry>
        </mxCell>
        <mxCell id="Yk5V6skLEnRN4M3c2gHt-1" value="KELB" style="ellipse;whiteSpace=wrap;html=1;" vertex="1" parent="Yk5V6skLEnRN4M3c2gHt-59">
          <mxGeometry x="55" y="10" width="120" height="80" as="geometry" />
        </mxCell>
        <mxCell id="Yk5V6skLEnRN4M3c2gHt-2" value="Management" style="ellipse;whiteSpace=wrap;html=1;" vertex="1" parent="Yk5V6skLEnRN4M3c2gHt-59">
          <mxGeometry x="270" y="10" width="120" height="80" as="geometry" />
        </mxCell>
        <mxCell id="Yk5V6skLEnRN4M3c2gHt-17" style="edgeStyle=orthogonalEdgeStyle;rounded=0;orthogonalLoop=1;jettySize=auto;html=1;exitX=0;exitY=0.5;exitDx=0;exitDy=0;entryX=1;entryY=0.5;entryDx=0;entryDy=0;startArrow=none;startFill=0;" edge="1" parent="Yk5V6skLEnRN4M3c2gHt-59" source="Yk5V6skLEnRN4M3c2gHt-2" target="Yk5V6skLEnRN4M3c2gHt-1">
          <mxGeometry relative="1" as="geometry">
            <mxPoint x="210" y="120" as="targetPoint" />
          </mxGeometry>
        </mxCell>
        <mxCell id="Yk5V6skLEnRN4M3c2gHt-60" style="edgeStyle=orthogonalEdgeStyle;rounded=0;orthogonalLoop=1;jettySize=auto;html=1;exitX=0;exitY=0.5;exitDx=0;exitDy=0;entryX=0.5;entryY=0;entryDx=0;entryDy=0;" edge="1" parent="1" source="Yk5V6skLEnRN4M3c2gHt-1" target="Yk5V6skLEnRN4M3c2gHt-7">
          <mxGeometry relative="1" as="geometry">
            <Array as="points">
              <mxPoint x="215" y="380" />
              <mxPoint x="215" y="30" />
              <mxPoint x="653" y="30" />
            </Array>
          </mxGeometry>
        </mxCell>
        <mxCell id="Yk5V6skLEnRN4M3c2gHt-61" value="" style="swimlane;startSize=0;dashed=1;" vertex="1" parent="1">
          <mxGeometry x="330" y="500" width="140" height="190" as="geometry" />
        </mxCell>
        <mxCell id="Yk5V6skLEnRN4M3c2gHt-32" value="Time User Operator" style="rounded=0;whiteSpace=wrap;html=1;" vertex="1" parent="Yk5V6skLEnRN4M3c2gHt-61">
          <mxGeometry x="30" y="20" width="80" height="60" as="geometry" />
        </mxCell>
        <mxCell id="Yk5V6skLEnRN4M3c2gHt-5" value="Time User" style="rounded=0;whiteSpace=wrap;html=1;" vertex="1" parent="Yk5V6skLEnRN4M3c2gHt-61">
          <mxGeometry x="30" y="110" width="80" height="60" as="geometry" />
        </mxCell>
        <mxCell id="Yk5V6skLEnRN4M3c2gHt-51" style="edgeStyle=orthogonalEdgeStyle;rounded=0;orthogonalLoop=1;jettySize=auto;html=1;exitX=0.5;exitY=1;exitDx=0;exitDy=0;entryX=0.5;entryY=0;entryDx=0;entryDy=0;" edge="1" parent="Yk5V6skLEnRN4M3c2gHt-61" source="Yk5V6skLEnRN4M3c2gHt-32" target="Yk5V6skLEnRN4M3c2gHt-5">
          <mxGeometry relative="1" as="geometry" />
        </mxCell>
        <mxCell id="Yk5V6skLEnRN4M3c2gHt-66" value="" style="swimlane;startSize=0;dashed=1;" vertex="1" parent="1">
          <mxGeometry x="584" y="104" width="140" height="190" as="geometry" />
        </mxCell>
        <mxCell id="Yk5V6skLEnRN4M3c2gHt-8" value="Time Source Operator" style="rounded=0;whiteSpace=wrap;html=1;" vertex="1" parent="Yk5V6skLEnRN4M3c2gHt-66">
          <mxGeometry x="24" y="120" width="90" height="60" as="geometry" />
        </mxCell>
        <mxCell id="Yk5V6skLEnRN4M3c2gHt-7" value="Time Source" style="rounded=0;whiteSpace=wrap;html=1;" vertex="1" parent="Yk5V6skLEnRN4M3c2gHt-66">
          <mxGeometry x="24" y="30" width="90" height="60" as="geometry" />
        </mxCell>
        <mxCell id="Yk5V6skLEnRN4M3c2gHt-35" style="edgeStyle=orthogonalEdgeStyle;rounded=0;orthogonalLoop=1;jettySize=auto;html=1;exitX=0.5;exitY=1;exitDx=0;exitDy=0;entryX=0.5;entryY=0;entryDx=0;entryDy=0;startArrow=classic;startFill=1;" edge="1" parent="Yk5V6skLEnRN4M3c2gHt-66" source="Yk5V6skLEnRN4M3c2gHt-7" target="Yk5V6skLEnRN4M3c2gHt-8">
          <mxGeometry relative="1" as="geometry" />
        </mxCell>
        <mxCell id="Yk5V6skLEnRN4M3c2gHt-69" value="" style="swimlane;startSize=0;dashed=1;" vertex="1" parent="1">
          <mxGeometry x="340" y="108" width="110" height="112" as="geometry" />
        </mxCell>
        <mxCell id="Yk5V6skLEnRN4M3c2gHt-71" value="&lt;div&gt;&lt;font&gt;STRIDE&lt;/font&gt;&lt;/div&gt;" style="text;html=1;align=center;verticalAlign=middle;resizable=0;points=[];autosize=1;strokeColor=#6c8ebf;fillColor=#dae8fc;fontFamily=Courier New;" vertex="1" parent="1">
          <mxGeometry x="445" y="130" width="70" height="30" as="geometry" />
        </mxCell>
        <mxCell id="Yk5V6skLEnRN4M3c2gHt-72" value="IDE" style="text;html=1;align=center;verticalAlign=middle;resizable=0;points=[];autosize=1;strokeColor=#6c8ebf;fillColor=#dae8fc;fontFamily=Courier New;" vertex="1" parent="1">
          <mxGeometry x="540" y="170" width="50" height="30" as="geometry" />
        </mxCell>
        <mxCell id="Yk5V6skLEnRN4M3c2gHt-73" value="IDE" style="text;html=1;align=center;verticalAlign=middle;resizable=0;points=[];autosize=1;strokeColor=#6c8ebf;fillColor=#dae8fc;fontFamily=Courier New;" vertex="1" parent="1">
          <mxGeometry x="730" y="130" width="50" height="30" as="geometry" />
        </mxCell>
        <mxCell id="Yk5V6skLEnRN4M3c2gHt-74" value="STIDE" style="text;html=1;align=center;verticalAlign=middle;resizable=0;points=[];autosize=1;strokeColor=#6c8ebf;fillColor=#dae8fc;fontFamily=Courier New;" vertex="1" parent="1">
          <mxGeometry x="475" y="610" width="60" height="30" as="geometry" />
        </mxCell>
      </root>
    </mxGraphModel>
  </diagram>
</mxfile>
